# File created by Blade
# Date/Time:  Tue Apr 07 21:33:03 2015
# Frame Rate: 120.000 fps
#------------------------------------------------------
:FULLY-SPECIFIED
:DEGREES
671
root 34.409244 31.190040 -18.244638 37.106563 -58.565927 -7.011090
Spine -10.690399 -9.059057 5.782735
Head -9.387890 -1.228132 2.552120
LeftShoulder -10.896759 39.723082 14.102821
LeftArm 64.335951 19.950344 -64.766456
LeftForeArm -3.627083 -0.000000 24.250483
LeftHand 6.474400 -0.000000 -6.277666
LeftHandThumb1 -26.253704 0.000000 33.147579
RightShoulder -1.005966 -5.084305 -18.000555
RightArm 14.324288 -18.085633 88.127361
RightForeArm 1.130533 -0.000000 23.571100
RightHand 10.046396 -0.000000 1.278542
RightHandThumb1 -24.326973 -0.000000 -32.862282
LeftUpLeg -21.320829 -6.826590 5.036286
LeftLeg 16.309000 -0.000000 -0.000000
LeftFoot -20.918303 5.318803 -19.804446
LeftToeBase -12.096007 -0.000000 0.000000
RightUpLeg -43.700440 4.402306 7.229641
RightLeg 43.064916 -0.000000 -0.000000
RightFoot -15.316407 -11.186434 9.842920
RightToeBase -24.944163 -0.000000 0.000000
672
root 34.217115 31.170717 -18.179918 37.277744 -58.501675 -7.260857
Spine -10.528909 -9.085142 5.970714
Head -9.621365 -1.145109 2.403352
LeftShoulder -10.934257 39.760770 14.160842
LeftArm 64.057665 20.004616 -64.879513
LeftForeArm -3.540499 -0.000000 24.956232
LeftHand 6.578442 -0.000000 -6.075636
LeftHandThumb1 -26.253704 0.000000 33.147579
RightShoulder -1.031791 -5.075403 -18.141113
RightArm 14.230513 -17.959584 88.052722
RightForeArm 1.212140 0.000000 23.751102
RightHand 9.975174 -0.000000 1.193891
RightHandThumb1 -24.326973 -0.000000 -32.862282
LeftUpLeg -21.821828 -6.701917 5.225379
LeftLeg 18.199370 -0.000000 -0.000000
LeftFoot -21.191706 4.673273 -20.488538
LeftToeBase -12.425871 -0.000000 0.000000
RightUpLeg -43.167403 4.366329 7.532770
RightLeg 42.895421 -0.000000 -0.000000
RightFoot -15.641022 -11.226564 10.027669
RightToeBase -24.941798 -0.000000 0.000000
673
root 34.023041 31.149149 -18.113236 37.374313 -58.416527 -7.464098
Spine -10.338300 -9.130899 6.156325
Head -9.844433 -1.056430 2.231225
LeftShoulder -11.021761 39.884131 14.163140
LeftArm 63.869681 20.044919 -64.896622
LeftForeArm -3.585986 0.000000 25.672091
LeftHand 6.714353 -0.000000 -5.872840
LeftHandThumb1 -26.253704 0.000000 33.147579
RightShoulder -1.036369 -5.049748 -18.327812
RightArm 14.154476 -17.632983 88.075655
RightForeArm 1.150144 -0.000000 23.830068
RightHand 9.952458 -0.000000 1.221417
RightHandThumb1 -24.326973 -0.000000 -32.862282
LeftUpLeg -22.416742 -6.480473 5.368154
LeftLeg 20.332597 -0.000000 -0.000000
LeftFoot -21.344079 3.932337 -21.227467
LeftToeBase -12.855876 -0.000000 0.000000
RightUpLeg -42.593845 4.253151 7.846223
RightLeg 42.722647 -0.000000 -0.000000
RightFoot -15.957737 -11.245619 10.149758
RightToeBase -25.041348 -0.000000 0.000000
674
root 33.832191 31.128151 -18.041281 37.429207 -58.353017 -7.566780
Spine -10.208181 -9.181527 6.298266
Head -10.041195 -0.981070 2.044187
LeftShoulder -11.148676 40.103639 14.125751
LeftArm 63.781273 20.087177 -64.856330
LeftForeArm -3.764858 -0.000000 26.305265
LeftHand 6.928119 0.000000 -5.630744
LeftHandThumb1 -26.253704 0.000000 33.147579
RightShoulder -1.017298 -5.003885 -18.520103
RightArm 14.010390 -17.399211 88.084782
RightForeArm 1.252126 0.000000 24.049394
RightHand 9.952270 -0.000000 1.118121
RightHandThumb1 -24.326973 -0.000000 -32.862282
LeftUpLeg -23.149730 -6.375850 5.466405
LeftLeg 22.619448 -0.000000 -0.000000
LeftFoot -21.422063 3.334688 -22.196383
LeftToeBase -13.304063 -0.000000 0.000000
RightUpLeg -42.060598 4.118376 8.090821
RightLeg 42.539392 -0.000000 -0.000000
RightFoot -16.157700 -11.332173 10.105482
RightToeBase -25.448803 -0.000000 0.000000
675
root 33.638783 31.096696 -17.973497 37.591707 -58.268237 -7.783570
Spine -10.103025 -9.186306 6.507729
Head -10.198552 -0.961117 1.853103
LeftShoulder -11.249547 40.117065 14.200462
LeftArm 63.505859 20.281151 -64.879880
LeftForeArm -3.995340 -0.000000 26.879208
LeftHand 7.242093 0.000000 -5.532910
LeftHandThumb1 -26.253704 0.000000 33.147579
RightShoulder -1.002975 -4.988600 -18.806872
RightArm 13.892976 -17.052926 88.194089
RightForeArm 1.309949 -0.000000 24.264114
RightHand 9.946925 0.000000 1.143769
RightHandThumb1 -24.326973 -0.000000 -32.862282
LeftUpLeg -24.106296 -5.984394 5.587562
LeftLeg 25.350034 -0.000000 -0.000000
LeftFoot -21.405591 2.532893 -22.842776
LeftToeBase -13.891445 -0.000000 0.000000
RightUpLeg -41.545031 4.071356 8.365186
RightLeg 42.417789 -0.000000 -0.000000
RightFoot -16.491102 -11.341189 10.210667
RightToeBase -25.568868 -0.000000 0.000000
676
root 33.430248 31.065195 -17.906794 37.699596 -58.044387 -8.065137
Spine -9.898581 -9.219008 6.795321
Head -10.355608 -0.974618 1.693835
LeftShoulder -11.348222 40.138510 14.217739
LeftArm 63.318002 20.493811 -64.784187
LeftForeArm -4.442730 -0.000000 27.352530
LeftHand 7.441397 -0.000000 -5.320152
LeftHandThumb1 -26.253704 0.000000 33.147579
RightShoulder -1.029357 -4.995154 -19.037789
RightArm 13.757450 -16.740329 88.242414
RightForeArm 1.418173 -0.000000 24.543967
RightHand 10.074234 -0.000000 0.986769
RightHandThumb1 -24.326973 -0.000000 -32.862282
LeftUpLeg -25.086917 -5.557768 5.805416
LeftLeg 28.347674 -0.000000 -0.000000
LeftFoot -21.148629 1.803107 -23.049459
LeftToeBase -14.424211 -0.000000 0.000000
RightUpLeg -40.847158 3.996841 8.743295
RightLeg 42.201921 -0.000000 -0.000000
RightFoot -16.814836 -11.394765 10.347523
RightToeBase -25.798888 -0.000000 0.000000
677
root 33.237392 31.039943 -17.825547 37.464144 -57.952739 -7.811383
Spine -9.811870 -9.327171 6.772956
Head -10.516670 -0.984837 1.570632
LeftShoulder -11.471351 40.120926 14.204515
LeftArm 63.011067 20.660336 -64.827467
LeftForeArm -4.669796 -0.000000 27.754943
LeftHand 7.714601 -0.000000 -5.180855
LeftHandThumb1 -26.253704 0.000000 33.147579
RightShoulder -0.996933 -5.036175 -19.187317
RightArm 13.626559 -16.360203 88.234324
RightForeArm 1.457328 -0.000000 24.955522
RightHand 10.091852 -0.000000 0.957832
RightHandThumb1 -24.326973 -0.000000 -32.862282
LeftUpLeg -26.250199 -5.695299 5.871049
LeftLeg 31.463402 -0.000000 -0.000000
LeftFoot -20.626837 1.377779 -22.991135
LeftToeBase -14.648677 -0.000000 0.000000
RightUpLeg -40.359262 3.838219 8.776971
RightLeg 42.126135 -0.000000 -0.000000
RightFoot -17.128619 -11.401307 10.414181
RightToeBase -26.065014 -0.000000 0.000000
